<?xml version="1.0" standalone="no"?>
<!DOCTYPE svg PUBLIC "-//W3C//DTD SVG 20010904//EN"
 "http://www.w3.org/TR/2001/REC-SVG-20010904/DTD/svg10.dtd">
<svg version="1.0" xmlns="http://www.w3.org/2000/svg"
 width="1464.000000pt" height="1464.000000pt" viewBox="0 0 1464.000000 1464.000000"
 preserveAspectRatio="xMidYMid meet">

<g transform="translate(0.000000,1464.000000) scale(0.100000,-0.100000)"
fill="#000000" stroke="none">
<path d="M7050 14619 c-369 -45 -733 -174 -1034 -366 -196 -126 -260 -185
-1219 -1142 -521 -520 -946 -949 -945 -952 2 -3 311 -294 688 -647 l684 -640
86 -26 c255 -78 495 -108 835 -105 206 3 266 0 338 -14 333 -67 809 -260 1267
-515 781 -435 1456 -1013 1879 -1610 37 -53 154 -239 258 -412 235 -390 390
-630 575 -892 312 -444 295 -393 328 -953 40 -667 157 -1106 386 -1451 52 -79
229 -292 403 -484 127 -141 553 -570 566 -570 19 0 1888 1881 1955 1968 223
287 381 608 461 937 43 180 59 301 66 500 19 575 -153 1103 -515 1575 -96 125
-5176 5204 -5302 5300 -330 253 -681 408 -1091 480 -99 18 -172 23 -359 25
-129 2 -269 -1 -310 -6z"/>
<path d="M1554 9878 c-517 -519 -971 -981 -1008 -1028 -155 -195 -308 -467
-392 -695 -44 -122 -98 -334 -119 -475 -23 -149 -30 -421 -16 -576 44 -481
231 -942 528 -1309 111 -137 5138 -5158 5258 -5252 337 -264 705 -428 1132
-505 112 -20 161 -23 393 -23 295 0 379 10 615 70 185 47 318 98 490 185 321
162 417 241 982 812 251 255 656 663 898 908 242 245 456 462 474 482 l34 37
-120 128 c-372 396 -693 810 -892 1147 -77 132 -174 328 -216 441 -60 162 -83
268 -100 472 -59 706 -255 1259 -660 1863 -397 592 -1048 1238 -1954 1940
-471 365 -945 617 -1421 755 -308 89 -545 122 -980 135 -401 13 -435 17 -509
66 -84 55 -242 188 -434 363 -185 169 -823 787 -950 920 -42 44 -81 81 -85 81
-4 0 -430 -424 -948 -942z"/>
</g>
</svg>
